<svg width="32" height="32" viewBox="0 0 32 32" fill="none" xmlns="http://www.w3.org/2000/svg">
<rect width="31.0379" height="31.625" rx="15.5189" fill="white"/>
<path fill-rule="evenodd" clip-rule="evenodd" d="M12.5339 8.83333C12.7673 8.34167 13.2706 8 13.8523 8H17.1856C17.7673 8 18.2698 8.34167 18.5039 8.83333C19.0731 8.83833 19.5173 8.86417 19.9139 9.01917C20.3875 9.20439 20.7993 9.51918 21.1023 9.9275C21.4081 10.3392 21.5523 10.8667 21.7489 11.5925L22.3673 13.8608L22.6006 14.5617L22.6206 14.5867C23.3714 15.5483 23.0139 16.9783 22.2989 19.8375C21.8439 21.6567 21.6173 22.5658 20.9389 23.0958C20.2606 23.625 19.3231 23.625 17.4481 23.625H13.5898C11.7148 23.625 10.7773 23.625 10.0989 23.0958C9.42061 22.5658 9.19311 21.6567 8.73895 19.8375C8.02395 16.9783 7.66645 15.5483 8.41728 14.5867L8.43728 14.5617L8.67061 13.8608L9.28895 11.5925C9.48645 10.8667 9.63061 10.3383 9.93562 9.92667C10.2387 9.51865 10.6505 9.20416 11.1239 9.01917C11.5206 8.86417 11.9639 8.8375 12.5339 8.83333ZM12.5356 10.085C11.9839 10.0908 11.7623 10.1117 11.5789 10.1833C11.3239 10.2831 11.1021 10.4526 10.9389 10.6725C10.7923 10.87 10.7056 11.1458 10.4639 12.035L9.98895 13.7758C10.8389 13.625 12.0006 13.625 13.5889 13.625H17.4481C19.0373 13.625 20.1981 13.625 21.0481 13.775L20.5739 12.0342C20.3323 11.145 20.2456 10.8692 20.0989 10.6717C19.9358 10.4518 19.714 10.2822 19.4589 10.1825C19.2756 10.1108 19.0539 10.09 18.5023 10.0842C18.384 10.3332 18.1975 10.5436 17.9644 10.6909C17.7314 10.8383 17.4613 10.9166 17.1856 10.9167H13.8523C13.5767 10.9166 13.3067 10.8385 13.0736 10.6913C12.8406 10.5441 12.6541 10.3339 12.5356 10.085Z" fill="#7D7D7D"/>
</svg>
